<svg width="34" height="34" viewBox="0 0 34 34" fill="none" xmlns="http://www.w3.org/2000/svg">
<path fill-rule="evenodd" clip-rule="evenodd" d="M6.8992 7.48031L23.0263 16.661C23.1128 16.7035 23.1993 16.746 23.329 16.746C23.5452 16.746 23.7613 16.6185 23.8478 16.406C23.9343 16.1934 23.891 15.9384 23.7181 15.8109L9.75279 3.31501C9.66632 3.23 9.53661 3.1875 9.36366 3.1875C9.19072 3.1875 9.01777 3.27251 8.9313 3.44252L6.68302 6.71526C6.59654 6.84276 6.59654 7.01278 6.63978 7.14029C6.63978 7.3103 6.76949 7.43781 6.8992 7.48031ZM30.2082 19.1661L28.4788 15.5959C28.3923 15.3833 28.1761 15.2983 27.9599 15.2983C27.8734 15.2983 27.7437 15.3408 27.6573 15.3833L11.5734 24.564C11.3572 24.6915 11.2275 24.9465 11.314 25.1591C11.3572 25.4141 11.5734 25.5841 11.8328 25.5841C11.876 25.5841 11.9625 25.5841 12.0057 25.5416L29.8623 19.9312C30.165 19.8462 30.3379 19.5061 30.2082 19.2511C30.2349 19.2249 30.2286 19.2148 30.2199 19.201C30.2145 19.1924 30.2082 19.1824 30.2082 19.1661ZM9.28003 10.7097C9.3665 10.4547 9.58268 10.2847 9.8421 10.2847C10.1448 10.2847 10.4042 10.5397 10.4042 10.8372V29.1985C10.4042 29.4961 10.1448 29.7511 9.8421 29.7511H5.77789C5.60495 29.7511 5.432 29.6661 5.34553 29.5386C5.21582 29.4111 5.21582 29.241 5.21582 29.071L9.28003 10.7097Z" fill="#FF0000"/>
</svg>
