<svg width="120" height="32" viewBox="0 0 120 32" fill="none" xmlns="http://www.w3.org/2000/svg">
<path fill-rule="evenodd" clip-rule="evenodd" d="M5.5676 9.48276C3.85096 9.48276 2.4878 10.7936 2.4878 12.376V19.624C2.4878 21.2158 3.85045 22.5172 5.5676 22.5172H18.4324C20.149 22.5172 21.5122 21.2064 21.5122 19.624V12.376C21.5122 10.7847 20.1396 9.48276 18.4324 9.48276H5.5676ZM2 12.376C2 10.5064 3.60293 9 5.5676 9H18.4324C20.3855 9 22 10.4955 22 12.376V19.624C22 21.4937 20.3971 23 18.4324 23H5.5676C3.60344 23 2 21.5041 2 19.624V12.376Z" fill="#373653"/>
<path fill-rule="evenodd" clip-rule="evenodd" d="M5.23174 11.5C4.82762 11.5 4.5 11.8242 4.5 12.2241V13H4.0122V12.2241C4.0122 11.5576 4.55823 11.0172 5.23174 11.0172H6V11.5H5.23174ZM18.7683 11.4748H18V10.992H18.7683C19.4418 10.992 19.9878 11.5324 19.9878 12.1989V13H19.5V12.1989C19.5 11.799 19.1724 11.4748 18.7683 11.4748ZM9.80488 16C9.80488 14.8002 10.7877 13.8276 12 13.8276C13.2123 13.8276 14.1951 14.8002 14.1951 16C14.1951 17.1998 13.2123 18.1724 12 18.1724C10.7877 18.1724 9.80488 17.1998 9.80488 16ZM4.5 19L4.4878 19.7931C4.4878 20.193 4.8154 20.5172 5.21951 20.5172H6V21H5.21951C4.54599 21 4 20.4597 4 19.7931L4.0122 19H4.5ZM19.5122 19.7759V19H20V19.7759C20 20.4424 19.454 20.9828 18.7805 20.9828H18V20.5H18.7805C19.1846 20.5 19.5122 20.1758 19.5122 19.7759ZM12 14.3103C11.0571 14.3103 10.2927 15.0668 10.2927 16C10.2927 16.9332 11.0571 17.6897 12 17.6897C12.9429 17.6897 13.7073 16.9332 13.7073 16C13.7073 15.0668 12.9429 14.3103 12 14.3103Z" fill="#373653"/>
<path fill-rule="evenodd" clip-rule="evenodd" d="M63.0012 9.50244H50.5012V16.0024C50.5012 19.5923 53.4114 22.5024 57.0012 22.5024H63.0012C66.5911 22.5024 69.5012 19.5923 69.5012 16.0024C69.5012 12.4126 66.5911 9.50244 63.0012 9.50244ZM50.0012 9.00244V16.0024C50.0012 19.8684 53.1352 23.0024 57.0012 23.0024H63.0012C66.8672 23.0024 70.0012 19.8684 70.0012 16.0024C70.0012 12.1364 66.8672 9.00244 63.0012 9.00244H50.0012Z" fill="#373653"/>
<path d="M56.0012 17.0024C56.5535 17.0024 57.0012 16.5547 57.0012 16.0024C57.0012 15.4502 56.5535 15.0024 56.0012 15.0024C55.4489 15.0024 55.0012 15.4502 55.0012 16.0024C55.0012 16.5547 55.4489 17.0024 56.0012 17.0024Z" fill="#373653"/>
<path d="M60.0012 17.0024C60.5535 17.0024 61.0012 16.5547 61.0012 16.0024C61.0012 15.4502 60.5535 15.0024 60.0012 15.0024C59.4489 15.0024 59.0012 15.4502 59.0012 16.0024C59.0012 16.5547 59.4489 17.0024 60.0012 17.0024Z" fill="#373653"/>
<path d="M64.0012 17.0024C64.5535 17.0024 65.0012 16.5547 65.0012 16.0024C65.0012 15.4502 64.5535 15.0024 64.0012 15.0024C63.4489 15.0024 63.0012 15.4502 63.0012 16.0024C63.0012 16.5547 63.4489 17.0024 64.0012 17.0024Z" fill="#373653"/>
<path fill-rule="evenodd" clip-rule="evenodd" d="M108 6.52632C102.768 6.52632 98.5263 10.7678 98.5263 16C98.5263 21.2322 102.768 25.4737 108 25.4737C113.232 25.4737 117.474 21.2322 117.474 16C117.474 10.7678 113.232 6.52632 108 6.52632ZM98 16C98 10.4772 102.477 6 108 6C113.523 6 118 10.4772 118 16C118 21.5228 113.523 26 108 26C102.477 26 98 21.5228 98 16Z" fill="#373653"/>
<path d="M108.112 18.9319H107.343V18.6914C107.343 18.4241 107.386 18.1728 107.471 17.9376C107.567 17.6917 107.685 17.4618 107.824 17.248C107.973 17.0342 108.139 16.8364 108.321 16.6546C108.502 16.4622 108.689 16.2751 108.882 16.0933C109.063 15.9222 109.245 15.7405 109.427 15.548C109.619 15.3449 109.79 15.1311 109.94 14.9065C110.1 14.682 110.228 14.4522 110.324 14.2169C110.431 13.971 110.485 13.7144 110.485 13.4472C110.485 13.0943 110.415 12.7843 110.276 12.517C110.148 12.2497 109.972 12.0305 109.747 11.8595C109.534 11.6777 109.277 11.5441 108.978 11.4585C108.689 11.3623 108.385 11.3142 108.064 11.3142C107.818 11.3142 107.567 11.3409 107.311 11.3944C107.054 11.4371 106.814 11.5173 106.589 11.6349C106.376 11.7418 106.178 11.8808 105.996 12.0519C105.825 12.223 105.697 12.4315 105.612 12.6774H104.842C104.97 12.2925 105.152 11.9771 105.387 11.7312C105.633 11.4853 105.905 11.2875 106.205 11.1378C106.504 10.9881 106.819 10.8865 107.15 10.8331C107.482 10.7689 107.797 10.7368 108.096 10.7368C108.513 10.7368 108.903 10.7956 109.266 10.9133C109.64 11.0202 109.966 11.1859 110.244 11.4104C110.533 11.6242 110.757 11.8969 110.917 12.2283C111.078 12.5598 111.158 12.95 111.158 13.399C111.158 14.0085 111.003 14.543 110.693 15.0028C110.383 15.4625 109.966 15.9383 109.443 16.4301C109.261 16.6012 109.09 16.7669 108.93 16.9272C108.769 17.0876 108.631 17.2587 108.513 17.4404C108.395 17.6115 108.299 17.7986 108.224 18.0018C108.15 18.2049 108.112 18.4348 108.112 18.6914V18.9319ZM107.76 19.9802C107.931 19.9802 108.075 20.039 108.192 20.1566C108.321 20.2635 108.385 20.4239 108.385 20.6377C108.385 20.8302 108.326 20.9852 108.208 21.1028C108.091 21.2097 107.941 21.2632 107.76 21.2632C107.557 21.2632 107.396 21.2044 107.279 21.0867C107.161 20.9691 107.102 20.8141 107.102 20.6217C107.102 20.4185 107.161 20.2635 107.279 20.1566C107.396 20.039 107.557 19.9802 107.76 19.9802Z" fill="#373653"/>
</svg>
