<svg width="104" height="23" viewBox="0 0 104 23" fill="none" xmlns="http://www.w3.org/2000/svg">
<path fill-rule="evenodd" clip-rule="evenodd" d="M21.9915 12.5487H27.4306C27.5506 12.5069 27.6306 12.5905 27.5906 12.7994L28.3905 14.7633C28.6304 15.3065 28.7504 15.599 28.7504 15.6826C28.7904 15.8079 28.8304 15.9751 28.8304 16.1422C28.8304 16.3929 28.7104 16.6018 28.5505 16.7272C28.1505 16.9779 27.6706 17.0615 27.2307 17.0197H26.9107V17.2286C26.9107 17.3957 27.0307 17.4793 27.1507 17.4793H34.5495C34.6695 17.4793 34.7895 17.354 34.7895 17.2286C34.7895 17.1033 34.7095 16.9779 34.5895 16.9779C34.2296 16.9361 33.9096 16.8108 33.6296 16.5601C33.2697 16.184 32.8298 15.3901 32.2699 14.053L26.4308 0.138672H26.1908L20.3918 13.6769C20.0318 14.5962 19.5519 15.4319 18.992 16.2258C18.672 16.6018 18.2321 16.8525 17.7522 16.9361C17.6322 16.9779 17.5522 17.0615 17.5522 17.1868C17.5522 17.354 17.6722 17.4375 17.7922 17.4375H22.7114C22.8314 17.4375 22.9513 17.3122 22.9513 17.1868C22.9513 17.0615 22.8714 16.9361 22.7514 16.9361C22.3115 16.8943 21.8315 16.8108 21.3916 16.6436C21.0317 16.4347 20.7917 16.0169 20.8317 15.599C20.8317 15.0976 20.9517 14.638 21.1516 14.2201L21.7915 12.7159C21.8315 12.5905 21.9115 12.5487 21.9915 12.5487ZM24.951 6.28102L27.0307 11.2952C27.0707 11.2952 27.0707 11.337 27.0307 11.4205C27.0307 11.5459 26.9107 11.6295 26.7907 11.6295H22.5914H22.5114C22.3914 11.5459 22.3514 11.4205 22.3914 11.2952L24.5111 6.28102L24.6311 6.15567C24.7511 6.11388 24.911 6.15567 24.951 6.28102ZM16.7114 0.387695H3.75345C3.64242 0.426362 3.59989 0.50081 3.49908 0.677263L3.47349 0.721973C3.47349 0.847327 3.59347 0.972681 3.71345 0.972681C4.6733 1.01447 5.23321 1.13982 5.55316 1.43231C5.87311 1.7248 6.03309 2.35157 6.03309 3.31262C6.03309 7.28217 5.59315 10.4578 4.75329 12.8395C3.95341 15.1377 2.59363 16.5166 0.71393 16.9762C0.633943 16.9762 0.553955 17.0598 0.553955 17.1851V22.1993C0.553955 22.3664 0.673938 22.45 0.793919 22.45H0.833912C0.953893 22.45 1.07387 22.3664 1.07387 22.2411C1.19385 20.904 1.79376 19.6504 2.7936 18.773C3.79344 17.8955 5.11323 17.4776 6.79297 17.4776H11.1923C12.792 17.4776 14.0718 17.9373 14.9917 18.8565C15.8715 19.734 16.4314 20.9458 16.5114 22.1993C16.5514 22.3246 16.6314 22.4082 16.7514 22.4082C16.8714 22.4082 16.9913 22.2829 16.9913 22.1575V17.1851C16.9913 17.018 16.8714 16.9344 16.7514 16.9344C16.3115 16.9344 15.9115 16.8509 15.5116 16.6837C15.2316 16.5584 14.9517 16.3077 14.8317 15.9734C14.7117 15.472 14.6317 14.9705 14.6717 14.4691V3.1037C14.6717 2.22622 14.8317 1.59945 15.0716 1.34874C15.3116 1.09803 15.8715 0.930896 16.7514 0.889111C16.8714 0.847327 16.9513 0.763758 16.9513 0.638404C16.9513 0.513049 16.8314 0.387695 16.7114 0.387695ZM7.31288 1.4741H10.9523C11.0723 1.51588 11.1523 1.59945 11.1523 1.7248V15.0123C11.1523 15.6391 11.1123 15.9734 10.9523 16.0987C10.7923 16.2241 10.3524 16.2659 9.55252 16.2659H4.31336C4.23337 16.2659 4.19338 16.2241 4.15338 16.1823C4.0734 16.0987 4.0734 15.9316 4.15338 15.848C4.75329 15.1377 5.23321 14.302 5.59316 13.4245C6.15307 11.9621 6.51301 10.416 6.67298 8.86998C6.95294 6.9061 7.07292 4.94222 7.07292 2.93656V1.7248C7.07292 1.59945 7.1929 1.4741 7.31288 1.4741ZM42.0284 9.20426C41.9084 9.20426 41.7884 9.32962 41.7884 9.45497V14.4691C41.7484 15.0123 41.7884 15.5555 41.9084 16.0987C42.0284 16.3494 42.2283 16.5584 42.4683 16.6837C42.7882 16.8509 43.1882 16.9344 43.5481 16.9344H43.8681C43.988 16.9344 44.068 17.018 44.108 17.1434C44.108 17.2687 44.028 17.3523 43.9081 17.3941H35.8693C35.7494 17.3941 35.6294 17.3105 35.6294 17.1434C35.6294 17.018 35.7094 16.8926 35.8693 16.8926H36.1893C36.5892 16.8926 36.9892 16.8091 37.3491 16.6419C37.5891 16.5166 37.749 16.3077 37.829 16.057C37.949 15.5555 37.989 15.0123 37.949 14.4691V3.31262C37.989 2.76942 37.949 2.22622 37.829 1.68302C37.709 1.43231 37.5491 1.22339 37.3091 1.09803C36.9892 0.930896 36.5892 0.847327 36.2293 0.847327H35.9093C35.7894 0.847327 35.6694 0.763758 35.6694 0.638404C35.6694 0.51305 35.7494 0.387695 35.9093 0.387695H43.8681C43.988 0.387695 44.108 0.471265 44.108 0.596619C44.108 0.721973 44.028 0.847327 43.8681 0.847327H43.5481C43.1482 0.847327 42.7482 0.930896 42.4283 1.09803C42.1883 1.22339 42.0284 1.43231 41.9484 1.68302C41.8284 2.18444 41.7884 2.72764 41.8284 3.27084V7.82537C41.8284 7.95072 41.9084 8.07608 42.0684 8.07608H47.3475C47.4675 8.07608 47.5875 7.99251 47.5875 7.86715V3.31262C47.6275 2.76942 47.5875 2.22622 47.4675 1.68302C47.3475 1.43231 47.1475 1.22339 46.9476 1.09803C46.6276 0.930896 46.2277 0.847327 45.8677 0.847327H45.4678C45.3478 0.847327 45.2278 0.763758 45.2278 0.638404C45.2278 0.51305 45.3078 0.387695 45.4678 0.387695H53.5065C53.6265 0.387695 53.7465 0.51305 53.7465 0.638404C53.7465 0.763758 53.6265 0.889111 53.5065 0.889111H53.1866C52.7866 0.847327 52.3867 0.972681 52.0668 1.13982C51.8268 1.26517 51.6668 1.4741 51.5868 1.7248C51.4669 2.22622 51.4269 2.76942 51.4669 3.31262V14.4691C51.4269 15.0123 51.4669 15.5555 51.5868 16.0987C51.7068 16.3494 51.9068 16.5584 52.1467 16.6837C52.4667 16.8509 52.8666 16.9344 53.2266 16.9344H53.5465C53.6665 16.9344 53.7865 17.018 53.7865 17.1434C53.7865 17.2687 53.7065 17.3941 53.5865 17.3941H45.4678C45.3478 17.3941 45.2278 17.3105 45.2278 17.1434C45.2278 17.018 45.3078 16.8926 45.4678 16.8926H45.7878C46.1877 16.8926 46.5876 16.8091 46.9476 16.6419C47.1875 16.5166 47.3475 16.3077 47.4275 16.057C47.5475 15.5555 47.5875 15.0123 47.5475 14.4691V9.45497C47.5475 9.32962 47.4675 9.20426 47.3475 9.20426H42.0284ZM54.9066 16.8929C54.7466 16.8929 54.6666 17.0183 54.6666 17.1436C54.6666 17.269 54.7466 17.3526 54.9066 17.4361H66.7447C69.6643 17.4361 71.424 19.0239 72.0639 22.1996C72.0639 22.2831 72.1439 22.3667 72.2638 22.3667H72.3838C72.5038 22.3667 72.5838 22.2414 72.5838 22.116V16.9347H72.2638C71.5839 16.9347 71.104 16.7676 70.8641 16.4751C70.6241 16.1826 70.5041 15.514 70.5041 14.4694V3.3129C70.5041 2.18472 70.6641 1.51616 70.9041 1.26545C71.264 0.931177 71.7839 0.805823 72.2638 0.847608H72.5838V0.5969C72.6238 0.471546 72.5038 0.346191 72.3838 0.346191H64.5851C64.4651 0.346191 64.3851 0.471546 64.3851 0.5969C64.3851 0.764038 64.4651 0.847608 64.5851 0.847608H64.905C65.6249 0.847608 66.1048 1.01475 66.3048 1.30724C66.5048 1.59973 66.6247 2.26829 66.6247 3.27112V14.7201C66.6247 15.5558 66.5847 16.0154 66.4248 16.1408C66.2648 16.2661 65.7449 16.3079 64.865 16.3079H62.4654C61.6655 16.3079 61.2256 16.2244 61.0656 16.099C60.9056 15.9737 60.8657 15.4722 60.8657 14.6365V3.35469C60.8657 2.2265 60.9856 1.59973 61.2656 1.30724C61.5455 1.01475 62.0655 0.889392 62.8653 0.889392H63.1853V0.638684C63.1853 0.51333 63.0653 0.387976 62.9453 0.387976H54.9066C54.7466 0.387976 54.6666 0.51333 54.6666 0.638684C54.6666 0.764038 54.7866 0.847608 54.9066 0.847608H55.1866C55.8664 0.847608 56.3464 1.01475 56.5863 1.30724C56.8263 1.59973 56.9463 2.26829 56.9463 3.27112V14.4276C56.9463 15.3887 56.8263 16.0572 56.6263 16.3915C56.4264 16.7258 55.9064 16.8929 55.1066 16.8929H54.9066ZM80.1419 1.39053C80.0219 1.39053 79.9019 1.4741 79.9019 1.64124V8.32678H80.2219C81.2617 8.32678 81.9816 7.9925 82.4615 7.32395C82.9814 6.48826 83.2614 5.52721 83.3414 4.56616C83.3414 4.44081 83.4614 4.35724 83.5414 4.35724H83.5813C83.7013 4.35724 83.7813 4.44081 83.7813 4.60795V12.9231C83.7813 13.0484 83.7013 13.1738 83.5813 13.1738H83.5414C83.4214 13.1738 83.3414 13.0902 83.3414 12.9649C83.2614 12.2128 83.0614 11.4606 82.7415 10.7921C82.5015 10.2489 82.1416 9.83103 81.6616 9.53854C81.1817 9.32961 80.6618 9.20426 80.1019 9.20426C79.9819 9.20426 79.8619 9.28783 79.8619 9.41318V13.9677C79.8219 14.5527 79.8619 15.1377 79.9819 15.6809C80.0619 15.8898 80.2219 16.0987 80.4218 16.1823C80.7418 16.3494 81.0617 16.3912 81.4217 16.3912H82.3815C83.9013 16.3912 85.1011 16.0152 86.021 15.3048C86.9808 14.4691 87.6607 13.3827 87.9407 12.1292C87.9807 12.0456 88.0606 11.962 88.1406 11.962C88.2606 11.962 88.3806 12.0456 88.3806 12.171V12.2128L87.7007 17.1433C87.7007 17.2687 87.5807 17.3523 87.5007 17.3523H73.9029C73.7829 17.3523 73.6629 17.2687 73.6629 17.1433C73.6629 17.018 73.7429 16.8926 73.8629 16.8926H74.1828C74.5828 16.8926 74.9827 16.8091 75.3027 16.6419C75.5426 16.5166 75.7026 16.3077 75.7826 16.0569C75.9025 15.5555 75.9426 15.0123 75.9026 14.4691V3.31262C75.9026 2.85299 75.9025 2.35157 75.8626 1.89194C75.7826 1.64124 75.6226 1.39053 75.4226 1.22339C75.0627 0.972681 74.6227 0.847327 74.1828 0.889111H73.8629C73.7429 0.889111 73.6229 0.805542 73.6229 0.638403C73.6229 0.513049 73.7429 0.387695 73.8629 0.387695H87.0208C87.1408 0.387695 87.2608 0.513049 87.2608 0.638403V5.19293C87.2608 5.31829 87.1808 5.44364 87.0608 5.44364C86.9408 5.44364 86.8608 5.36007 86.8608 5.2765C86.7408 4.39902 86.4209 3.56333 85.901 2.81121C85.4211 2.22622 84.8211 1.80837 84.1013 1.64124C83.2614 1.43231 82.4215 1.39053 81.5816 1.43231H80.1419V1.39053ZM96.1792 9.91488C96.1792 9.74775 96.2991 9.66418 96.4191 9.66418C97.6589 9.70596 98.8987 9.62239 100.059 9.3299C101.098 9.12098 102.058 8.57778 102.778 7.74208C103.458 6.94817 103.818 5.94534 103.778 4.90072C103.778 3.6054 103.218 2.39364 102.258 1.64152C101.258 0.764038 99.5786 0.346191 97.259 0.346191H90.3801C90.2601 0.346191 90.1401 0.471546 90.1401 0.5969C90.1001 0.722254 90.2201 0.847608 90.3401 0.847608C90.78 0.847608 91.22 0.889393 91.6199 1.05653C91.8598 1.18189 92.0598 1.39081 92.1798 1.64152C92.3398 2.18472 92.3798 2.7697 92.3398 3.35469V14.3858C92.3798 14.9708 92.3398 15.5558 92.1798 16.099C92.0598 16.3497 91.8598 16.5586 91.6199 16.684C91.18 16.8511 90.74 16.9347 90.3001 16.8929C90.1801 16.8929 90.1001 17.0183 90.1001 17.1436C90.1001 17.3108 90.2201 17.3943 90.3401 17.3943H98.1389C98.2588 17.3943 98.3788 17.269 98.3788 17.1436C98.4188 17.0183 98.2988 16.8929 98.1788 16.8929C97.7389 16.8929 97.299 16.8511 96.8991 16.684C96.6591 16.5586 96.4591 16.3497 96.3391 16.099C96.1792 15.5558 96.1392 14.9708 96.1792 14.3858V9.91488ZM96.2192 8.49421V1.59973C96.2192 1.43259 96.2991 1.34902 96.4191 1.39081H96.6991C97.7389 1.39081 98.5388 1.6833 99.0587 2.26829C99.5786 2.85327 99.8586 3.77254 99.8586 5.02608C99.8586 6.27962 99.5786 7.24066 99.0587 7.82565C98.4988 8.45242 97.6589 8.7867 96.8191 8.74491H96.4191C96.2991 8.70313 96.2192 8.61956 96.2192 8.49421Z" fill="#FF0600"/>
</svg>
